<?xml version="1.0" standalone="no"?>
<!DOCTYPE svg PUBLIC "-//W3C//DTD SVG 20010904//EN"
 "http://www.w3.org/TR/2001/REC-SVG-20010904/DTD/svg10.dtd">
<svg version="1.0" xmlns="http://www.w3.org/2000/svg"
 width="82.000000pt" height="82.000000pt" viewBox="0 0 82.000000 82.000000"
 preserveAspectRatio="xMidYMid meet">

<g transform="translate(0.000000,82.000000) scale(0.100000,-0.100000)"
fill="#000000" stroke="none">
<path d="M80 435 c0 -176 2 -205 15 -205 13 0 15 29 15 205 0 176 -2 205 -15
205 -13 0 -15 -29 -15 -205z"/>
<path d="M394 435 c0 -116 2 -161 3 -102 2 59 2 154 0 210 -1 56 -3 8 -3 -108z"/>
<path d="M261 614 c26 -30 31 -70 14 -111 l-15 -38 25 28 c39 43 30 103 -18
128 -21 11 -21 11 -6 -7z"/>
<path d="M694 610 c9 -13 16 -35 16 -48 0 -14 5 -22 12 -20 23 8 19 27 -12 60
-22 23 -27 25 -16 8z"/>
<path d="M487 593 c-38 -40 -57 -94 -57 -160 0 -78 14 -121 50 -163 l30 -35
-22 45 c-20 38 -23 61 -23 151 0 98 2 108 28 147 32 49 31 52 -6 15z"/>
<path d="M253 365 c51 -95 78 -137 84 -131 9 9 -67 153 -96 181 -31 29 -31 28
12 -50z"/>
<path d="M716 323 c-3 -3 -6 -18 -6 -31 0 -14 -8 -35 -17 -46 -18 -20 -17 -20
2 -6 29 22 44 43 45 62 0 19 -14 31 -24 21z"/>
</g>
</svg>
